<svg xmlns="http://www.w3.org/2000/svg" width="1200" height="675" viewBox="0 0 1200 675" role="img" aria-label="Platform preview">
  <defs>
    <linearGradient id="bg2" x1="0%" y1="0%" x2="100%" y2="100%">
      <stop offset="0%" stop-color="#031228"/>
      <stop offset="100%" stop-color="#08305a"/>
    </linearGradient>
    <linearGradient id="accent2" x1="0%" y1="0%" x2="100%" y2="0%">
      <stop offset="0%" stop-color="#00f58c"/>
      <stop offset="100%" stop-color="#57ffb2"/>
    </linearGradient>
  </defs>
  <rect width="1200" height="675" fill="url(#bg2)"/>
  <rect x="70" y="66" width="180" height="44" rx="22" fill="url(#accent2)"/>
  <text x="160" y="95" text-anchor="middle" fill="#052718" font-family="Arial, sans-serif" font-size="20" font-weight="700">Projet</text>
  <text x="70" y="210" fill="#f0f7ff" font-family="Arial, sans-serif" font-size="58" font-weight="800">Plateforme Cours + Blog</text>
  <text x="70" y="270" fill="#c8d8ea" font-family="Arial, sans-serif" font-size="34">Espace cours, progression, commentaires et contributions</text>
  <g transform="translate(70 330)">
    <rect x="0" y="0" width="520" height="260" rx="24" fill="#ffffff" fill-opacity="0.08" stroke="#00f58c" stroke-opacity="0.35"/>
    <rect x="24" y="24" width="472" height="24" rx="12" fill="#00f58c" fill-opacity="0.35"/>
    <rect x="24" y="66" width="220" height="156" rx="14" fill="#ffffff" fill-opacity="0.12"/>
    <rect x="260" y="66" width="236" height="32" rx="10" fill="#ffffff" fill-opacity="0.16"/>
    <rect x="260" y="114" width="236" height="32" rx="10" fill="#ffffff" fill-opacity="0.12"/>
    <rect x="260" y="162" width="236" height="32" rx="10" fill="#ffffff" fill-opacity="0.12"/>
  </g>
  <g transform="translate(650 330)">
    <rect x="0" y="0" width="480" height="260" rx="24" fill="#ffffff" fill-opacity="0.06" stroke="#57ffb2" stroke-opacity="0.32"/>
    <text x="26" y="52" fill="#57ffb2" font-family="Arial, sans-serif" font-size="30" font-weight="700">Modules</text>
    <text x="26" y="96" fill="#f0f7ff" font-family="Arial, sans-serif" font-size="24">- Cours par categories</text>
    <text x="26" y="132" fill="#f0f7ff" font-family="Arial, sans-serif" font-size="24">- Blog participatif</text>
    <text x="26" y="168" fill="#f0f7ff" font-family="Arial, sans-serif" font-size="24">- Validation admin</text>
    <text x="26" y="204" fill="#f0f7ff" font-family="Arial, sans-serif" font-size="24">- Commentaires visiteurs</text>
  </g>
</svg>
